<svg xmlns="http://www.w3.org/2000/svg" viewBox="0 0 96 96" role="img" aria-labelledby="title desc">
  <title id="title">OmniMirror logo</title>
  <desc id="desc">A mirrored Blender-style mesh mark for the OmniMirror documentation.</desc>
  <rect width="96" height="96" rx="18" fill="#111827"/>
  <g fill="none" stroke="#e5e7eb" stroke-linecap="round" stroke-linejoin="round">
    <g stroke-width="3.4">
      <path d="M18 22 40 34 40 48 29 48Z M40 48 40 62 22 72 29 48"/>
      <path d="M78 22 56 34 56 48 67 48Z M56 48 56 62 74 72 67 48"/>
    </g>
    <g fill="#111827" stroke-width="2.8">
      <rect x="14" y="18" width="8" height="8" rx="1.4"/>
      <rect x="36" y="30" width="8" height="8" rx="1.4"/>
      <rect x="36" y="44" width="8" height="8" rx="1.4"/>
      <rect x="25" y="44" width="8" height="8" rx="1.4"/>
      <rect x="36" y="58" width="8" height="8" rx="1.4"/>
      <rect x="18" y="68" width="8" height="8" rx="1.4"/>
      <rect x="74" y="18" width="8" height="8" rx="1.4"/>
      <rect x="52" y="30" width="8" height="8" rx="1.4"/>
      <rect x="52" y="44" width="8" height="8" rx="1.4"/>
      <rect x="63" y="44" width="8" height="8" rx="1.4"/>
      <rect x="52" y="58" width="8" height="8" rx="1.4"/>
      <rect x="70" y="68" width="8" height="8" rx="1.4"/>
    </g>
  </g>
  <path d="M48 14v68" stroke="#60a5fa" stroke-width="4" stroke-linecap="round"/>
  <circle cx="48" cy="48" r="7" fill="#60a5fa"/>
</svg>
